<svg width="18" height="18" viewBox="0 0 18 18" fill="none" xmlns="http://www.w3.org/2000/svg">
<path d="M17.0025 0.296387H0.997467C0.442467 0.296387 0 0.716441 0 1.23494V16.3585C0 16.8763 0.442467 17.2964 0.997467 17.2964H9.61496V10.7131H7.26746V8.14753H9.61496V6.25558C9.61496 4.05972 11.0325 2.86408 13.11 2.86408C14.1 2.86408 14.955 2.93424 15.2025 2.96539V5.26039L13.77 5.26108C12.6375 5.26108 12.42 5.76753 12.42 6.50989V8.1483H15.1125L14.76 10.7138H12.42V17.2964H17.01C17.5575 17.2964 18 16.8763 18 16.3578V1.23494C18 0.716441 17.5575 0.296387 17.0025 0.296387Z" fill="#EEE2E2"/>
</svg>
